<?xml version="1.0" encoding="utf-8"?>
<!-- Generator: Adobe Illustrator 23.0.6, SVG Export Plug-In . SVG Version: 6.00 Build 0)  -->
<svg version="1.1" id="Layer_1" xmlns="http://www.w3.org/2000/svg" xmlns:xlink="http://www.w3.org/1999/xlink" x="0px" y="0px"
	 viewBox="0 0 933 174.6" style="enable-background:new 0 0 933 174.6;" xml:space="preserve">
<g>
	<path d="M118.1,121.3H131c29.8,0,44.7,8.4,44.7,25c0,8.8-4.7,15.7-14,20.7c-9.4,5-25.8,7.5-49.4,7.5H64c-24.6,0-41.4-2.2-50.4-6.5
		S0,157.9,0,150.7c0-14.6,11.3-21.9,33.9-21.9h6.4c-3.3-0.4-6.3-1.2-9.1-2.6c-2.7-1.3-4.1-3-4.1-4.9c0-3.9,4.8-6.5,14.3-7.7
		c-12.1,0-21.7-2.8-28.9-8.3c-7.1-5.5-10.7-13.5-10.7-24c0-14.6,5.6-25.2,16.8-31.9c11.2-6.6,29.5-10,54.8-10h101.4v55.2h-9.9
		c-3.1,14.9-18.7,22.3-46.8,22.3C118.1,116.9,118.1,121.3,118.1,121.3z M102.9,135.1H70.7c-2.5,0-4.6,0.5-6.1,1.5
		c-1.6,1-2.3,2.3-2.3,3.9c0,1.6,0.8,3,2.3,4.1c1.6,1.1,3.6,1.7,6.1,1.7h32.2c2.5,0,4.6-0.6,6.1-1.7c1.6-1.1,2.3-2.5,2.3-4.1
		s-0.8-3-2.3-3.9C107.5,135.6,105.4,135.1,102.9,135.1z M78.3,89.4v12.2c0,3.7,2.7,5.5,8.2,5.5c2.3,0,4.3-0.5,6-1.6s2.5-2.4,2.5-3.9
		V89.4c0-1.7-0.8-3.1-2.5-4.1c-1.7-1.1-3.7-1.6-6.1-1.6s-4.4,0.5-5.8,1.6C79.1,86.3,78.3,87.7,78.3,89.4z"/>
	<path d="M279.4,156.2h-87.1V39.7h73.4l2.9,14.4c0.4-0.4,0.9-0.9,1.5-1.6c0.6-0.7,2.2-1.8,5-3.5c2.7-1.6,5.8-3.1,9.4-4.4
		c9.7-3.3,22-4.9,36.8-4.9v62.7l-41.8-2.8L279.4,156.2L279.4,156.2z"/>
	<path d="M375.3,49.3c-14.8,0-25.7-2-32.7-5.9s-10.5-10.3-10.5-18.9s3.6-14.9,10.7-18.7s18-5.7,32.6-5.7c29.2,0,43.8,8,43.8,23.9
		c0,9.1-3.6,15.6-10.8,19.5C401.1,47.4,390.1,49.3,375.3,49.3z M332,156.2V53.9h87.1v102.4H332V156.2z"/>
	<path d="M618.2,156.2h-73.7l-2.9-14.4c-0.8,1.4-2.4,3.2-4.8,5.3c-2.4,2.1-5,3.9-7.7,5.3c-7.2,3.8-16.5,5.7-27.8,5.7
		c-20.5,0-36.4-5.3-47.9-15.8s-17.2-25.2-17.2-44.1s5.8-33.7,17.5-44.5s27.7-16.2,47.9-16.2c6.2,0,11.8,0.5,16.7,1.5
		s8.2,1.9,9.9,2.9l2.6,1.4v-34h87.4V156.2z M518.8,96.5V113c0,1.7,0.7,3.1,2.2,4.1c1.5,1.1,3.4,1.6,5.8,1.6c2.4,0,4.5-0.5,6.1-1.6
		c1.7-1.1,2.5-2.4,2.5-4.1V96.5c0-1.6-0.8-2.9-2.5-4s-3.7-1.7-6-1.7s-4.3,0.6-5.8,1.7S518.8,94.9,518.8,96.5z"/>
	<path d="M719.9,110.3h7.6l5.3-70.6H814l-25.7,134.9h-92.4l6.4-20.3c-16.8,0-29-1.7-36.7-5.2s-12.5-9.4-14.5-17.8l-20.5-91.5H714
		L719.9,110.3z"/>
</g>
<rect x="827" width="106" height="106"/>
</svg>
