<?xml version="1.0" encoding="utf-8"?>
<!-- Generator: Adobe Illustrator 23.0.6, SVG Export Plug-In . SVG Version: 6.00 Build 0)  -->
<svg version="1.1" id="Layer_1" xmlns="http://www.w3.org/2000/svg" xmlns:xlink="http://www.w3.org/1999/xlink" x="0px" y="0px"
	 viewBox="0 0 933 174.6" style="enable-background:new 0 0 933 174.6;" xml:space="preserve">
<path d="M827,105.9c0,0,0-76.8,0-105.9c0,0,76.5,0.1,106,0c0,0,0,76.6,0,105.9C933,105.9,856.2,105.9,827,105.9z M874.3,28
	c-6.7,0-11.5,0.3-16.2,0.9c-3.8,0.5-7.5,1.3-11.1,2.4c-2.7,0.8-4.2,3.5-3.4,6.1c0.8,2.7,3.4,4.2,6.1,3.4c0.6-0.2,1.2-0.3,1.8-0.5
	c5.2-1.4,10.6-2.1,16-2.3c8.9-0.4,17.7,0.3,26.4,2.3c6.2,1.4,12,3.5,17.5,6.7c1.8,1,3.9,0.8,5.5-0.4c2.7-2.2,2.5-6.3-0.5-8.1
	c-4-2.4-8.2-4.2-12.6-5.7C893.5,29.5,883,28.1,874.3,28z M870.1,46.3c-1.4,0.1-3.9,0.2-6.4,0.4c-4.7,0.4-9.3,1.2-13.8,2.7
	c-0.8,0.2-1.5,0.8-2,1.4c-1.2,1.3-1.2,3.3-0.2,4.8c1,1.5,2.9,2.2,4.7,1.7c3.5-1.1,7.1-1.8,10.8-2.2c6.2-0.7,12.4-0.6,18.6,0.4
	c8.2,1.2,16.1,3.6,23.2,8c2.1,1.2,4.6,0.6,5.7-1.3c1.2-2,0.6-4.5-1.5-5.7c-1.5-0.9-3.1-1.8-4.7-2.6C894,48.6,882.8,46.4,870.1,46.3z
	 M871.7,63.5c0-0.1,0-0.1,0-0.2c-3.6,0.3-7.2,0.5-10.8,1c-3.1,0.4-6.1,1.1-9.2,1.7c-1.3,0.3-2.2,1.2-2.4,2.5
	c-0.3,1.2,0.1,2.3,1.1,3.2c1,0.9,2.1,0.9,3.4,0.6c6.4-1.5,13-2.3,19.6-2.1c9.4,0.2,18.3,2.4,26.5,7.3c1.6,0.9,3.5,0.4,4.5-1.1
	c1-1.6,0.5-3.6-1.1-4.5c-1.5-0.9-2.9-1.7-4.5-2.5C890.2,65.3,881.1,63.5,871.7,63.5z"/>
<g>
	<path d="M118.1,121.3h12.9c29.8,0,44.7,8.4,44.7,25c0,8.8-4.7,15.7-14,20.7c-9.4,5-25.8,7.5-49.4,7.5H64c-24.6,0-41.4-2.2-50.4-6.5
		S0,157.9,0,150.7c0-14.6,11.3-21.9,33.9-21.9h6.4c-3.3-0.4-6.3-1.2-9.1-2.6c-2.7-1.3-4.1-3-4.1-4.9c0-3.9,4.8-6.5,14.3-7.7
		c-12.1,0-21.7-2.8-28.9-8.3C5.4,99.8,1.8,91.8,1.8,81.3c0-14.6,5.6-25.2,16.8-31.9c11.2-6.6,29.5-10,54.8-10h101.4v55.2h-9.9
		c-3.1,14.9-18.7,22.3-46.8,22.3V121.3z M102.9,135.1H70.7c-2.5,0-4.6,0.5-6.1,1.5c-1.6,1-2.3,2.3-2.3,3.9c0,1.6,0.8,3,2.3,4.1
		c1.6,1.1,3.6,1.7,6.1,1.7h32.2c2.5,0,4.6-0.6,6.1-1.7c1.6-1.1,2.3-2.5,2.3-4.1c0-1.6-0.8-3-2.3-3.9
		C107.5,135.6,105.4,135.1,102.9,135.1z M78.3,89.4v12.2c0,3.7,2.7,5.5,8.2,5.5c2.3,0,4.3-0.5,6-1.6c1.7-1.1,2.5-2.4,2.5-3.9V89.4
		c0-1.7-0.8-3.1-2.5-4.1c-1.7-1.1-3.7-1.6-6.1-1.6c-2.4,0-4.4,0.5-5.8,1.6C79.1,86.3,78.3,87.7,78.3,89.4z"/>
	<path d="M279.4,156.2h-87.1V39.7h73.4l2.9,14.4c0.4-0.4,0.9-0.9,1.5-1.6c0.6-0.7,2.2-1.8,5-3.5c2.7-1.6,5.8-3.1,9.4-4.4
		c9.7-3.3,22-4.9,36.8-4.9v62.7l-41.8-2.8V156.2z"/>
	<path d="M375.3,49.3c-14.8,0-25.7-2-32.7-5.9c-7-3.9-10.5-10.3-10.5-18.9s3.6-14.9,10.7-18.7c7.1-3.8,18-5.7,32.6-5.7
		c29.2,0,43.8,8,43.8,23.9c0,9.1-3.6,15.6-10.8,19.5C401.1,47.4,390.1,49.3,375.3,49.3z M332,156.2V53.9h87.1v102.4H332z"/>
	<path d="M618.2,156.2h-73.7l-2.9-14.4c-0.8,1.4-2.4,3.2-4.8,5.3c-2.4,2.1-5,3.9-7.7,5.3c-7.2,3.8-16.5,5.7-27.8,5.7
		c-20.5,0-36.4-5.3-47.9-15.8c-11.5-10.5-17.2-25.2-17.2-44.1c0-18.9,5.8-33.7,17.5-44.5c11.7-10.8,27.7-16.2,47.9-16.2
		c6.2,0,11.8,0.5,16.7,1.5c4.9,1,8.2,1.9,9.9,2.9l2.6,1.4V9.3h87.4V156.2z M518.8,96.5V113c0,1.7,0.7,3.1,2.2,4.1
		c1.5,1.1,3.4,1.6,5.8,1.6c2.4,0,4.5-0.5,6.1-1.6c1.7-1.1,2.5-2.4,2.5-4.1V96.5c0-1.6-0.8-2.9-2.5-4c-1.7-1.1-3.7-1.7-6-1.7
		c-2.3,0-4.3,0.6-5.8,1.7C519.6,93.6,518.8,94.9,518.8,96.5z"/>
	<path d="M719.9,110.3h7.6l5.3-70.6H814l-25.7,134.9h-92.4l6.4-20.3c-16.8,0-29-1.7-36.7-5.2c-7.7-3.5-12.5-9.4-14.5-17.8
		l-20.5-91.5H714L719.9,110.3z"/>
</g>
</svg>
