<?xml version="1.0" encoding="utf-8"?>
<!-- Generator: Adobe Illustrator 23.0.6, SVG Export Plug-In . SVG Version: 6.00 Build 0)  -->
<svg version="1.1" id="Layer_1" xmlns="http://www.w3.org/2000/svg" xmlns:xlink="http://www.w3.org/1999/xlink" x="0px" y="0px"
	 viewBox="0 0 174.5 174.6" style="enable-background:new 0 0 174.5 174.6;" xml:space="preserve">
<style type="text/css">
	.st0{fill:#FFFF00;}
</style>
<rect class="st0" width="174.5" height="174.5"/>
<g>
	<path d="M53,140.8h7.3c16.8,0,25.3,5.3,25.3,15.8c0,5.6-2.7,9.9-7.9,13.1c-5.3,3.2-14.6,4.8-27.9,4.8H22.5
		c-13.9,0-23.4-1.4-28.5-4.1c-5.1-2.7-7.7-6.4-7.7-11c0-9.2,6.4-13.9,19.2-13.9h3.6c-1.9-0.3-3.6-0.8-5.1-1.6
		c-1.5-0.8-2.3-1.9-2.3-3.1c0-2.5,2.7-4.1,8.1-4.9c-6.8,0-12.3-1.8-16.3-5.3c-4-3.5-6-8.6-6-15.2c0-9.2,3.2-16,9.5-20.2
		c6.3-4.2,16.7-6.3,31-6.3h57.3v35h-5.6C77.7,133.3,68.9,138,53,138C53,138,53,140.8,53,140.8z M44.5,149.5H26.3
		c-1.4,0-2.6,0.3-3.4,1c-0.9,0.6-1.3,1.5-1.3,2.5s0.5,1.9,1.3,2.6c0.9,0.7,2,1.1,3.4,1.1h18.2c1.4,0,2.6-0.4,3.4-1.1
		c0.9-0.7,1.3-1.6,1.3-2.6s-0.5-1.9-1.3-2.5C47.1,149.9,45.9,149.5,44.5,149.5z M30.6,120.6v7.7c0,2.3,1.5,3.5,4.6,3.5
		c1.3,0,2.4-0.3,3.4-1c1-0.7,1.4-1.5,1.4-2.5v-7.7c0-1.1-0.5-2-1.4-2.6c-1-0.7-2.1-1-3.4-1s-2.5,0.3-3.3,1
		C31,118.6,30.6,119.5,30.6,120.6z"/>
</g>
<rect x="85.6" width="88.9" height="88.9"/>
</svg>
